<svg xmlns="http://www.w3.org/2000/svg" viewBox="0 0 50 50" width="50px" height="50px">
  <g id="logo">
    <path fill="#00b7ff" d="M 17 5 C 14.250484 5 12 7.2504839 12 10 L 12 12 L 10 12 C 7.2504839 12 5 14.250484 5 17 L 5 40 C 5 42.749516 7.2504839 45 10 45 L 33 45 C 35.749516 45 38 42.749516 38 40 L 38 38 L 40 38 C 42.749516 38 45 35.749516 45 33 L 45 10 C 45 7.2504839 42.749516 5 40 5 L 17 5 z M 17 7 L 40 7 C 41.668484 7 43 8.3315161 43 10 L 43 33 C 43 34.668484 41.668484 36 40 36 L 38 36 L 36 36 L 17 36 C 15.331516 36 14 34.668484 14 33 L 14 23 C 14 21.883334 14.883334 21 16 21 L 19 21 L 19 27 C 19 29.197334 20.802666 31 23 31 L 29 31 L 31 31 L 34 31 C 36.197334 31 38 29.197334 38 27 L 38 17 C 38 14.250484 35.749516 12 33 12 L 14 12 L 14 10 C 14 8.3315161 15.331516 7 17 7 z M 10 14 L 12 14 L 14 14 L 33 14 C 34.668484 14 36 15.331516 36 17 L 36 27 C 36 28.116666 35.116666 29 34 29 L 31 29 L 31 23 C 31 20.802666 29.197334 19 27 19 L 21 19 L 19 19 L 16 19 C 13.802666 19 12 20.802666 12 23 L 12 33 C 12 35.749516 14.250484 38 17 38 L 36 38 L 36 40 C 36 41.668484 34.668484 43 33 43 L 10 43 C 8.3315161 43 7 41.668484 7 40 L 7 17 C 7 15.331516 8.3315161 14 10 14 z M 21 21 L 27 21 C 28.116666 21 29 21.883334 29 23 L 29 29 L 23 29 C 21.883334 29 21 28.116666 21 27 L 21 21 z"/>
  </g>
  <g id="gear">
    <path d="M47.16,21.221l-5.91-0.966c-0.346-1.186-0.819-2.326-1.411-3.405l3.45-4.917c0.279-0.397,0.231-0.938-0.112-1.282 l-3.889-3.887c-0.347-0.346-0.893-0.391-1.291-0.104l-4.843,3.481c-1.089-0.602-2.239-1.08-3.432-1.427l-1.031-5.886 C28.607,2.35,28.192,2,27.706,2h-5.5c-0.49,0-0.908,0.355-0.987,0.839l-0.956,5.854c-1.2,0.345-2.352,0.818-3.437,1.412l-4.83-3.45 c-0.399-0.285-0.942-0.239-1.289,0.106L6.82,10.648c-0.343,0.343-0.391,0.883-0.112,1.28l3.399,4.863 c-0.605,1.095-1.087,2.254-1.438,3.46l-5.831,0.971c-0.482,0.08-0.836,0.498-0.836,0.986v5.5c0,0.485,0.348,0.9,0.825,0.985 l5.831,1.034c0.349,1.203,0.831,2.362,1.438,3.46l-3.441,4.813c-0.284,0.397-0.239,0.942,0.106,1.289l3.888,3.891 c0.343,0.343,0.884,0.391,1.281,0.112l4.87-3.411c1.093,0.601,2.248,1.078,3.445,1.424l0.976,5.861C21.3,47.647,21.717,48,22.206,48 h5.5c0.485,0,0.9-0.348,0.984-0.825l1.045-5.89c1.199-0.353,2.348-0.833,3.43-1.435l4.905,3.441 c0.398,0.281,0.938,0.232,1.282-0.111l3.888-3.891c0.346-0.347,0.391-0.894,0.104-1.292l-3.498-4.857 c0.593-1.08,1.064-2.222,1.407-3.408l5.918-1.039c0.479-0.084,0.827-0.5,0.827-0.985v-5.5C47.999,21.718,47.644,21.3,47.16,21.221z M25,32c-3.866,0-7-3.134-7-7c0-3.866,3.134-7,7-7s7,3.134,7,7C32,28.866,28.866,32,25,32z"/>
  </g>
  <g id="search">
    <path d="M 21 3 C 11.601563 3 4 10.601563 4 20 C 4 29.398438 11.601563 37 21 37 C 24.355469 37 27.460938 36.015625 30.09375 34.34375 L 42.375 46.625 L 46.625 42.375 L 34.5 30.28125 C 36.679688 27.421875 38 23.878906 38 20 C 38 10.601563 30.398438 3 21 3 Z M 21 7 C 28.199219 7 34 12.800781 34 20 C 34 27.199219 28.199219 33 21 33 C 13.800781 33 8 27.199219 8 20 C 8 12.800781 13.800781 7 21 7 Z"/>
  </g>
  <g id="logout">
    <path d="M0 9.875v12.219c0 1.125 0.469 2.125 1.219 2.906 0.75 0.75 1.719 1.156 2.844 1.156h6.125v-2.531h-6.125c-0.844 0-1.5-0.688-1.5-1.531v-12.219c0-0.844 0.656-1.5 1.5-1.5h6.125v-2.563h-6.125c-1.125 0-2.094 0.438-2.844 1.188-0.75 0.781-1.219 1.75-1.219 2.875zM6.719 13.563v4.875c0 0.563 0.5 1.031 1.063 1.031h5.656v3.844c0 0.344 0.188 0.625 0.5 0.781 0.125 0.031 0.25 0.031 0.313 0.031 0.219 0 0.406-0.063 0.563-0.219l7.344-7.344c0.344-0.281 0.313-0.844 0-1.156l-7.344-7.313c-0.438-0.469-1.375-0.188-1.375 0.563v3.875h-5.656c-0.563 0-1.063 0.469-1.063 1.031z"/>
  </g>
</svg>