<svg xmlns="http://www.w3.org/2000/svg" viewBox="0 0 24 24" width="50px" height="50px" >
  <g id="github">
    <path d="M12,2A10,10,0,0,0,8.84,21.5c.5.08.66-.23.66-.5V19.31C6.73,19.91,6.14,18,6.14,18A2.69,2.69,0,0,0,5,16.5c-.91-.62.07-.6.07-.6a2.1,2.1,0,0,1,1.53,1,2.15,2.15,0,0,0,2.91.83,2.16,2.16,0,0,1,.63-1.34C8,16.17,5.62,15.31,5.62,11.5a3.87,3.87,0,0,1,1-2.71,3.58,3.58,0,0,1,.1-2.64s.84-.27,2.75,1a9.63,9.63,0,0,1,5,0c1.91-1.29,2.75-1,2.75-1a3.58,3.58,0,0,1,.1,2.64,3.87,3.87,0,0,1,1,2.71c0,3.82-2.34,4.66-4.57,4.91a2.39,2.39,0,0,1,.69,1.85V21c0,.27.16.59.67.5A10,10,0,0,0,12,2Z"/>
  </g>
  <g id="vk">
    <path d="m23.456 5.784c-.27.849-.634 1.588-1.09 2.259l.019-.03q-.672 1.12-1.605 2.588-.8 1.159-.847 1.2c-.138.173-.234.385-.267.618l-.001.007c.027.212.125.397.268.535l.4.446q3.21 3.299 3.611 4.548c.035.092.055.198.055.309 0 .194-.062.373-.167.52l.002-.003c-.176.181-.422.293-.694.293-.03 0-.061-.001-.09-.004h.004-2.631c-.001 0-.003 0-.005 0-.337 0-.647-.118-.89-.314l.003.002c-.354-.291-.669-.606-.951-.948l-.009-.012q-.691-.781-1.226-1.315-1.782-1.694-2.63-1.694c-.021-.002-.045-.003-.07-.003-.165 0-.319.051-.446.138l.003-.002c-.104.13-.167.298-.167.479 0 .036.002.07.007.105v-.004c-.027.314-.043.679-.043 1.048 0 .119.002.237.005.355v-.017 1.159c.01.047.016.101.016.156 0 .242-.11.458-.282.601l-.001.001c-.387.177-.839.281-1.316.281-.102 0-.202-.005-.301-.014l.013.001c-1.574-.03-3.034-.491-4.275-1.268l.035.02c-1.511-.918-2.763-2.113-3.717-3.525l-.027-.042c-.906-1.202-1.751-2.56-2.471-3.992l-.07-.154c-.421-.802-.857-1.788-1.233-2.802l-.06-.185c-.153-.456-.264-.986-.31-1.535l-.002-.025q0-.758.892-.758h2.63c.024-.002.052-.003.081-.003.248 0 .477.085.658.228l-.002-.002c.2.219.348.488.421.788l.003.012c.484 1.367.997 2.515 1.587 3.615l-.067-.137c.482.97 1.015 1.805 1.623 2.576l-.023-.031q.8.982 1.248.982c.009.001.02.001.032.001.148 0 .277-.08.347-.2l.001-.002c.074-.19.117-.411.117-.641 0-.049-.002-.098-.006-.146v.006-3.879c-.021-.457-.133-.884-.32-1.267l.008.019c-.124-.264-.273-.492-.45-.695l.003.004c-.164-.164-.276-.379-.311-.619l-.001-.006c0-.17.078-.323.2-.423l.001-.001c.121-.111.283-.178.46-.178h.008 4.146c.022-.003.047-.004.073-.004.195 0 .37.088.486.226l.001.001c.103.188.164.413.164.651 0 .038-.002.075-.005.112v-.005 5.173c-.002.024-.003.052-.003.08 0 .184.051.357.139.504l-.002-.004c.073.108.195.178.333.178h.001c.176-.012.336-.07.471-.162l-.003.002c.272-.187.506-.4.709-.641l.004-.005c.607-.686 1.167-1.444 1.655-2.25l.039-.07c.344-.57.716-1.272 1.053-1.993l.062-.147.446-.892c.155-.446.571-.76 1.06-.76.019 0 .038 0 .057.001h-.003 2.631q1.066 0 .8.981z"/>
  </g>
  <g id="facebook">
    <path d="M14,6h3a1,1,0,0,0,1-1V3a1,1,0,0,0-1-1H14A5,5,0,0,0,9,7v3H7a1,1,0,0,0-1,1v2a1,1,0,0,0,1,1H9v7a1,1,0,0,0,1,1h2a1,1,0,0,0,1-1V14h2.22a1,1,0,0,0,1-.76l.5-2a1,1,0,0,0-1-1.24H13V7A1,1,0,0,1,14,6Z"/>
  </g>
  
  <g id="twitter" transform="scale(0.9,0.9) translate(1,-2)">
    <path d="M24 8.531c-0.688 1-1.5 1.844-2.469 2.563 0.031 0.219 0.031 0.438 0.031 0.656 0 6.5-4.938 14-14 14-2.781 0-5.375-0.844-7.563-2.219 0.375 0.031 0.781 0.094 1.188 0.094 2.313 0 4.406-0.813 6.094-2.125-2.188-0.031-3.969-1.5-4.594-3.438 0.281 0.063 0.625 0.094 0.938 0.094 0.438 0 0.906-0.063 1.313-0.188-2.281-0.438-3.969-2.406-3.969-4.781v-0.063c0.688 0.344 1.406 0.563 2.219 0.594-1.313-0.906-2.188-2.406-2.188-4.094 0-0.906 0.25-1.75 0.656-2.5 2.438 2.969 6.063 4.969 10.156 5.156-0.063-0.344-0.125-0.75-0.125-1.125 0-2.719 2.188-4.938 4.906-4.938 1.438 0 2.719 0.625 3.625 1.594 1.125-0.219 2.156-0.656 3.094-1.219-0.344 1.156-1.125 2.156-2.125 2.75 1-0.125 1.906-0.406 2.813-0.813z"/>
  </g>
  <g id="website">
    <path fill-rule="evenodd" clip-rule="evenodd" d="M13.9931 3.43368C12.8564 2.42331 11.1436 2.42331 10.0069 3.43368L2.33565 10.2526C1.92286 10.6195 1.88568 11.2516 2.2526 11.6644C2.61952 12.0771 3.25159 12.1143 3.66437 11.7474L4.00001 11.4491L4.00001 17.0658C3.99996 17.9523 3.99992 18.7161 4.08215 19.3278C4.17028 19.9833 4.36903 20.6117 4.87869 21.1213C5.38835 21.631 6.0167 21.8297 6.67222 21.9179C7.28388 22.0001 8.04769 22 8.93418 22H15.0658C15.9523 22 16.7161 22.0001 17.3278 21.9179C17.9833 21.8297 18.6117 21.631 19.1213 21.1213C19.631 20.6117 19.8297 19.9833 19.9179 19.3278C20.0001 18.7161 20.0001 17.9523 20 17.0659L20 11.4491L20.3356 11.7474C20.7484 12.1143 21.3805 12.0771 21.7474 11.6644C22.1143 11.2516 22.0772 10.6195 21.6644 10.2526L13.9931 3.43368ZM12 16C11.4477 16 11 16.4477 11 17V19C11 19.5523 10.5523 20 10 20C9.44772 20 9 19.5523 9 19V17C9 15.3431 10.3431 14 12 14C13.6569 14 15 15.3431 15 17V19C15 19.5523 14.5523 20 14 20C13.4477 20 13 19.5523 13 19V17C13 16.4477 12.5523 16 12 16Z"/>
  </g>
  <g id="youtube" transform="scale(0.9,0.9) translate(-2.4,-1.5)">
    <path d="M24.325 8.309s-2.655-.334-8.357-.334c-5.517 0-8.294.334-8.294.334A2.675 2.675 0 0 0 5 10.984v10.034a2.675 2.675 0 0 0 2.674 2.676s2.582.332 8.294.332c5.709 0 8.357-.332 8.357-.332A2.673 2.673 0 0 0 27 21.018V10.982a2.673 2.673 0 0 0-2.675-2.673zM13.061 19.975V12.03L20.195 16l-7.134 3.975z"/>
  </g>
  <g id="mainLink">
    <path fill-rule="evenodd" clip-rule="evenodd" d="M3.46447 20.5355C4.92893 22 7.28595 22 12 22C16.714 22 19.0711 22 20.5355 20.5355C22 19.0711 22 16.714 22 12C22 7.28595 22 4.92893 20.5355 3.46447C19.0711 2 16.714 2 12 2C7.28595 2 4.92893 2 3.46447 3.46447C2 4.92893 2 7.28595 2 12C2 16.714 2 19.0711 3.46447 20.5355ZM9.5 8.75C7.70507 8.75 6.25 10.2051 6.25 12C6.25 13.7949 7.70507 15.25 9.5 15.25C11.2949 15.25 12.75 13.7949 12.75 12C12.75 11.5858 13.0858 11.25 13.5 11.25C13.9142 11.25 14.25 11.5858 14.25 12C14.25 14.6234 12.1234 16.75 9.5 16.75C6.87665 16.75 4.75 14.6234 4.75 12C4.75 9.37665 6.87665 7.25 9.5 7.25C9.91421 7.25 10.25 7.58579 10.25 8C10.25 8.41421 9.91421 8.75 9.5 8.75ZM17.75 12C17.75 13.7949 16.2949 15.25 14.5 15.25C14.0858 15.25 13.75 15.5858 13.75 16C13.75 16.4142 14.0858 16.75 14.5 16.75C17.1234 16.75 19.25 14.6234 19.25 12C19.25 9.37665 17.1234 7.25 14.5 7.25C11.8766 7.25 9.75 9.37665 9.75 12C9.75 12.4142 10.0858 12.75 10.5 12.75C10.9142 12.75 11.25 12.4142 11.25 12C11.25 10.2051 12.7051 8.75 14.5 8.75C16.2949 8.75 17.75 10.2051 17.75 12Z"/>
  </g>
  <g id="instagram">
    <path fill-rule="evenodd" clip-rule="evenodd" d="M12 18C15.3137 18 18 15.3137 18 12C18 8.68629 15.3137 6 12 6C8.68629 6 6 8.68629 6 12C6 15.3137 8.68629 18 12 18ZM12 16C14.2091 16 16 14.2091 16 12C16 9.79086 14.2091 8 12 8C9.79086 8 8 9.79086 8 12C8 14.2091 9.79086 16 12 16Z"/>
    <path d="M18 5C17.4477 5 17 5.44772 17 6C17 6.55228 17.4477 7 18 7C18.5523 7 19 6.55228 19 6C19 5.44772 18.5523 5 18 5Z"/>
    <path fill-rule="evenodd" clip-rule="evenodd" d="M1.65396 4.27606C1 5.55953 1 7.23969 1 10.6V13.4C1 16.7603 1 18.4405 1.65396 19.7239C2.2292 20.8529 3.14708 21.7708 4.27606 22.346C5.55953 23 7.23969 23 10.6 23H13.4C16.7603 23 18.4405 23 19.7239 22.346C20.8529 21.7708 21.7708 20.8529 22.346 19.7239C23 18.4405 23 16.7603 23 13.4V10.6C23 7.23969 23 5.55953 22.346 4.27606C21.7708 3.14708 20.8529 2.2292 19.7239 1.65396C18.4405 1 16.7603 1 13.4 1H10.6C7.23969 1 5.55953 1 4.27606 1.65396C3.14708 2.2292 2.2292 3.14708 1.65396 4.27606ZM13.4 3H10.6C8.88684 3 7.72225 3.00156 6.82208 3.0751C5.94524 3.14674 5.49684 3.27659 5.18404 3.43597C4.43139 3.81947 3.81947 4.43139 3.43597 5.18404C3.27659 5.49684 3.14674 5.94524 3.0751 6.82208C3.00156 7.72225 3 8.88684 3 10.6V13.4C3 15.1132 3.00156 16.2777 3.0751 17.1779C3.14674 18.0548 3.27659 18.5032 3.43597 18.816C3.81947 19.5686 4.43139 20.1805 5.18404 20.564C5.49684 20.7234 5.94524 20.8533 6.82208 20.9249C7.72225 20.9984 8.88684 21 10.6 21H13.4C15.1132 21 16.2777 20.9984 17.1779 20.9249C18.0548 20.8533 18.5032 20.7234 18.816 20.564C19.5686 20.1805 20.1805 19.5686 20.564 18.816C20.7234 18.5032 20.8533 18.0548 20.9249 17.1779C20.9984 16.2777 21 15.1132 21 13.4V10.6C21 8.88684 20.9984 7.72225 20.9249 6.82208C20.8533 5.94524 20.7234 5.49684 20.564 5.18404C20.1805 4.43139 19.5686 3.81947 18.816 3.43597C18.5032 3.27659 18.0548 3.14674 17.1779 3.0751C16.2777 3.00156 15.1132 3 13.4 3Z"/>
  </g>
  <radialGradient id="gradient" r="150%" cx="30%" cy="107%">
    <stop stop-color="#fff" offset="0" />
    <stop stop-color="#fff" offset="0.05" />
    <stop stop-color="#fff" offset="0.45" />
    <stop stop-color="#fff" offset="0.6" />
    <stop stop-color="#fff" offset="0.9" />
  </radialGradient>
</svg>